<svg xmlns="http://www.w3.org/2000/svg" xmlns:xlink="http://www.w3.org/1999/xlink" viewBox="0 0 135 40"><defs><style>.cls-1{fill:#a6a6a6;}.cls-10,.cls-2,.cls-3{fill:#fff;}.cls-2{stroke:#fff;stroke-miterlimit:10;stroke-width:0.2px;}.cls-4{fill:url(#linear-gradient);}.cls-5{fill:url(#linear-gradient-2);}.cls-6{fill:url(#linear-gradient-3);}.cls-7{fill:url(#linear-gradient-4);}.cls-8{opacity:0.2;}.cls-10,.cls-8,.cls-9{isolation:isolate;}.cls-9{opacity:0.12;}.cls-10{opacity:0.25;}</style><linearGradient id="linear-gradient" x1="21.8" y1="173.29" x2="5.02" y2="156.51" gradientTransform="matrix(1, 0, 0, -1, 0, 182)" gradientUnits="userSpaceOnUse"><stop offset="0" stop-color="#00a0ff"/><stop offset="0.01" stop-color="#00a1ff"/><stop offset="0.26" stop-color="#00beff"/><stop offset="0.51" stop-color="#00d2ff"/><stop offset="0.76" stop-color="#00dfff"/><stop offset="1" stop-color="#00e3ff"/></linearGradient><linearGradient id="linear-gradient-2" x1="33.83" y1="162" x2="9.64" y2="162" gradientTransform="matrix(1, 0, 0, -1, 0, 182)" gradientUnits="userSpaceOnUse"><stop offset="0" stop-color="#ffe000"/><stop offset="0.41" stop-color="#ffbd00"/><stop offset="0.78" stop-color="orange"/><stop offset="1" stop-color="#ff9c00"/></linearGradient><linearGradient id="linear-gradient-3" x1="24.83" y1="159.7" x2="2.07" y2="136.95" gradientTransform="matrix(1, 0, 0, -1, 0, 182)" gradientUnits="userSpaceOnUse"><stop offset="0" stop-color="#ff3a44"/><stop offset="1" stop-color="#c31162"/></linearGradient><linearGradient id="linear-gradient-4" x1="7.3" y1="181.82" x2="17.46" y2="171.66" gradientTransform="matrix(1, 0, 0, -1, 0, 182)" gradientUnits="userSpaceOnUse"><stop offset="0" stop-color="#32a071"/><stop offset="0.07" stop-color="#2da771"/><stop offset="0.48" stop-color="#15cf74"/><stop offset="0.8" stop-color="#06e775"/><stop offset="1" stop-color="#00f076"/></linearGradient></defs><title>google play</title><g id="Layer_2" data-name="Layer 2"><g id="artwork"><rect width="135" height="40" rx="5" ry="5"/><path class="cls-1" d="M130,1a4,4,0,0,1,4,4V35a4,4,0,0,1-4,4H5a4,4,0,0,1-4-4V5A4,4,0,0,1,5,1H130m0-1H5A5,5,0,0,0,0,5V35a5,5,0,0,0,5,5H130a5,5,0,0,0,5-5V5a5,5,0,0,0-5-5Z"/><path class="cls-2" d="M47,10v2H42V8h1v3h5Z"/><path class="cls-2" d="M52,8H49v2h0v2H49V7h4Z"/><path class="cls-2" d="M55,13H55V8h1Z"/><path class="cls-2" d="M60,13V7h1v6Z"/><path class="cls-2" d="M64,13H63V8h1Z"/><path class="cls-2" d="M74,12H69V8h4v4Zm-4-1h3V8H70v3Z"/><path class="cls-2" d="M76,13V7h1l3,5h0V7h1v6H79L76,8h0v4Z"/><path class="cls-3" d="M68,22a4,4,0,1,0,4,4A4,4,0,0,0,68,22Zm0,7a3,3,0,1,1,2-3A2,2,0,0,1,68,29Zm-9-7a4,4,0,1,0,4,4A4,4,0,0,0,59,22Zm0,7a3,3,0,1,1,2-3A2,2,0,0,1,59,29ZM48,23v2h4v2H48a5,5,0,0,1,0-10h5l-5-2a7,7,0,1,0,0,13l5-2a6,6,0,0,0,2-4H48Zm45,1a4,4,0,0,0-4-3,4,4,0,0,0-4,4,4,4,0,0,0,4,4,4,4,0,0,0,4-2H88l6-2Zm-6,1a2,2,0,0,1,2-2h2Zm-5,4h2V17H83Zm-3-7H77a4,4,0,0,0,0,9h2c0,2-1,2-2,2l-2-2H74a4,4,0,0,0,4,3c2,0,4-1,4-4V22H80Zm-2,6a3,3,0,0,1,0-5,2,2,0,0,1,2,3A2,2,0,0,1,77,29Zm24-11H97V30h2V25h3a4,4,0,1,0,0-8Zm0,6H99V19h3a2,2,0,1,1,0,4Zm12-2-3,2h3a2,2,0,0,1,2,2h-2c-2,0-4,1-4,3a3,3,0,0,0,3,3h4V25C117,23,116,22,113,22Zm0,7h2A2,2,0,0,1,113,29Zm11-7-2,5h0l-2-5h-2l3,8-2,4h2l5-12Zm-17,8h2V17h-2Z"/><path class="cls-4" d="M10,8h0V31h1L23,20h0L11,7Z"/><path class="cls-5" d="M27,24l-4-4h0l4-4h0l5,3c1,1,1,2,0,3l-5,3Z"/><path class="cls-6" d="M27,24l-4-4L10,32h2l15-8"/><path class="cls-7" d="M27,16,13,7H10L23,20Z"/><path class="cls-8" d="M27,24,13,32h0l15-8Z"/><path class="cls-9" d="M10,32h0Z"/><path class="cls-9" d="M32,21l-5,3h0l5-3h0Z"/><path class="cls-10" d="M13,8,32,19h0L13,7c-1-1-3,0-3,1h0C10,7,11,7,13,8Z"/></g></g></svg>